<svg width="483" height="393" xmlns="http://www.w3.org/2000/svg" xmlns:xlink="http://www.w3.org/1999/xlink" overflow="hidden"><defs><clipPath id="clip0"><rect x="361" y="143" width="483" height="393"/></clipPath></defs><g clip-path="url(#clip0)" transform="translate(-361 -143)"><path d="M395.741 534.988 361.975 534.988C362.364 534.264 362.636 533.693 362.962 533.177 371.347 519.169 379.735 505.17 388.126 491.18L430.639 420.13C439.833 404.794 449.021 389.455 458.203 374.113L503.351 298.727C517.646 274.839 531.947 250.954 546.254 227.071 554.011 214.095 561.774 201.119 569.544 188.143 569.969 187.428 570.449 186.712 570.857 185.988 571.961 187.047 584.086 209.336 586.975 215.583Z" fill="#F2EBDA" fill-rule="evenodd"/><path d="M410.974 534.943 594.295 229.988C594.621 230.402 594.924 230.833 595.203 231.281 599.501 239.254 603.787 247.231 608.06 255.21 608.878 256.738 609.677 258.284 610.548 259.785 611.117 260.57 611.117 261.63 610.548 262.415 607.37 267.568 604.265 272.767 601.141 277.965L555.114 354.499 525.149 404.302C505.415 437.1 485.68 469.892 465.946 502.678L448.784 531.191C448.594 531.499 448.403 531.806 448.231 532.095 446.297 535.666 447.168 534.916 443.291 534.934 433.303 534.988 423.314 534.934 413.326 534.934Z" fill="#F2EBDA" fill-rule="evenodd"/><path d="M764.975 443.974 762.814 443.974C752.445 443.974 742.023 443.974 731.699 443.974 730.579 444.09 729.513 443.463 729.069 442.427 717.353 420.52 705.602 398.631 693.814 376.761L658.242 310.488C646.834 289.245 635.432 267.996 624.036 246.741 612.266 224.805 600.49 202.874 588.708 180.949 582.302 169 575.899 157.051 569.499 145.101 569.336 144.794 569.201 144.477 568.975 143.988L603.967 143.988C657.543 243.781 711.212 343.777 764.975 443.974Z" fill="#BD4F0B" fill-rule="evenodd"/><path d="M627.975 160.988 661.18 160.988 812.975 443.873C812.07 443.873 811.427 443.963 810.794 443.973 801.077 443.973 791.359 443.973 781.633 443.973 780.445 444.1 779.313 443.434 778.846 442.332 773.961 433.098 769.011 423.9 764.071 414.693 754.342 396.629 744.628 378.553 734.928 360.465 725.736 343.319 716.54 326.176 707.342 309.037 697.22 290.139 687.09 271.251 676.95 252.371L650.377 202.855 628.906 162.864C628.608 162.302 628.336 161.722 627.975 160.988Z" fill="#BD4F0B" fill-rule="evenodd"/><path d="M493.975 490.988 495.525 488.398C500.53 480.114 505.572 471.849 510.532 463.538 511.02 462.508 512.109 461.892 513.252 462 584.161 462.036 655.066 462.036 725.969 462L830.437 462 842.161 462 843.975 462C843.657 463.403 829.349 487.489 826.801 490.961Z" fill="#601A04" fill-rule="evenodd"/><path d="M789.948 503.988C789.45 504.894 789.133 505.428 788.808 505.972 783.38 515.032 777.952 524.092 772.578 533.207 772.02 534.392 770.778 535.099 769.475 534.974 704.558 534.931 639.637 534.931 574.714 534.974 546.634 534.974 518.553 534.974 490.473 534.974 483.516 534.974 476.56 534.919 469.594 534.874 469.133 534.874 468.689 534.874 467.975 534.783 468.382 534.05 468.671 533.479 468.997 532.971 474.425 523.911 479.853 514.851 485.28 505.791 485.863 504.614 487.115 503.924 488.42 504.06 562.637 504.097 636.857 504.097 711.08 504.06L789.975 504.06Z" fill="#601A04" fill-rule="evenodd"/><text fill="#601A04" font-family="Arial,Arial_MSFontService,sans-serif" font-weight="700" font-size="107" transform="translate(562.482 442)">21</text></g></svg>